<?xml version="1.0" encoding="UTF-8"?>
<svg width="169px" height="40px" viewBox="0 0 169 40" version="1.1" xmlns="http://www.w3.org/2000/svg" xmlns:xlink="http://www.w3.org/1999/xlink">
    <!-- Generator: Sketch 52.2 (67145) - http://www.bohemiancoding.com/sketch -->
    <title>logo</title>
    <desc>Created with Sketch.</desc>
    <g id="Page-1" stroke="none" stroke-width="1" fill="none" fill-rule="evenodd">
        <g id="logo">
            <g id="pill-(1)">
                <circle id="Oval" fill="#336CFB" cx="20" cy="20" r="20"></circle>
                <path d="M38.8630469,26.6591406 L29.9659375,17.7620312 L27.215625,20.1672656 L16.8041406,9.86789062 L14.1083594,21.9603906 L11.9757031,23.3508594 L27.2639844,38.6390625 C32.6664063,36.5321094 36.9265625,32.144375 38.8630469,26.6591406 Z" id="Path" fill="#1047D1"></path>
                <g id="Group" transform="translate(11.093750, 8.828125)" fill="#FFFFFF">
                    <path d="M3.35070313,15.6163281 C1.50976563,15.6163281 0.01734375,14.1239062 0.01734375,12.2829687 L0.01734375,3.3940625 C0.01734375,1.553125 1.50976563,0.060703125 3.35070313,0.060703125 C5.19164063,0.060703125 6.6840625,1.553125 6.6840625,3.3940625 L6.6840625,12.2829687 C6.6840625,14.1239062 5.19164063,15.6163281 3.35070313,15.6163281 Z" id="Path"></path>
                    <path d="M6.6840625,3.3940625 C6.6840625,1.553125 5.19164063,0.060703125 3.35070313,0.060703125 C1.50976563,0.060703125 0.01734375,1.553125 0.01734375,3.3940625 L0.01734375,7.76 L6.68398438,7.76 L6.68398438,3.3940625 L6.6840625,3.3940625 Z" id="Path"></path>
                </g>
                <path d="M17.7778125,12.2221875 C17.7778125,10.38125 16.2853906,8.88882812 14.4444531,8.88882812 C14.4407031,8.88882812 14.4370313,8.8890625 14.4332813,8.8890625 L14.4332813,16.5880469 L17.7778125,16.5880469 L17.7778125,12.2221875 Z" id="Path" fill="#D0D1D3"></path>
                <path d="M11.1110938,16.588125 L11.1110938,21.1110938 C11.1110938,22.9520313 12.6035156,24.4444531 14.4444531,24.4444531 C16.2853906,24.4444531 17.7778125,22.9520313 17.7778125,21.1110938 L17.7778125,16.588125 L11.1110938,16.588125 Z" id="Path" fill="#FF314F"></path>
                <path d="M14.4332813,16.588125 L14.4332813,24.4442969 C14.4370313,24.4442969 14.4407031,24.4445313 14.4444531,24.4445313 C16.2853906,24.4445313 17.7778125,22.9521094 17.7778125,21.1111719 L17.7778125,16.5882813 L14.4332813,16.5882813 L14.4332813,16.588125 Z" id="Path" fill="#A30F44"></path>
                <g id="Group" transform="translate(18.046875, 16.484375)" fill="#FFFFFF">
                    <path d="M11.5800781,0.9225 C12.945625,2.15710937 13.051875,4.265 11.8171094,5.63054687 L5.85578125,12.2240625 C4.62117188,13.5896094 2.51328125,13.6957031 1.14773438,12.4610937 C-0.2178125,11.2264844 -0.3240625,9.11859375 0.910703125,7.75304687 L6.87203125,1.15953125 C8.1065625,-0.206015625 10.214375,-0.312109375 11.5800781,0.9225 Z" id="Path"></path>
                    <path d="M0.910546875,7.75304687 C-0.3240625,9.11859375 -0.21796875,11.2264844 1.14757812,12.4610937 C2.513125,13.6957031 4.62101563,13.5896094 5.85570312,12.2240625 L8.78367187,8.98554687 L3.83851562,4.51453125 L0.910546875,7.75304687 Z" id="Path"></path>
                </g>
                <path d="M19.1399219,28.8935938 C19.1582031,28.9108594 19.1757812,28.9285938 19.1944531,28.9454688 C20.56,30.1800781 22.6678906,30.0739844 23.9025,28.7084375 L26.8304688,25.4700781 L24.3332031,23.2121875 L19.1399219,28.8935938 Z" id="Path" fill="#D0D1D3"></path>
                <path d="M26.8305469,25.47 L29.8639844,22.115 C31.0985937,20.7494531 30.9925,18.6415625 29.6269531,17.4069531 C28.2614063,16.1723437 26.1535156,16.2784375 24.9188281,17.6439844 L21.8853906,20.9989844 L26.8305469,25.47 Z" id="Path" fill="#FF314F"></path>
                <path d="M29.6338281,17.4134375 L24.3333594,23.2121094 L26.830625,25.47 L29.8640625,22.115 C31.0964062,20.7517969 30.9925781,18.6489844 29.6338281,17.4134375 Z" id="Path" fill="#A30F44"></path>
            </g>
            <g id="text" transform="translate(45.000000, 1.000000)" font-family="STHeitiTC-Light, Heiti TC" font-weight="300">
                <text id="app" font-size="18" fill="#336CFB">
                    <tspan x="88" y="15">app</tspan>
                </text>
                <text id="Medic" font-size="28" fill="#FFFFFF">
                    <tspan x="0" y="35">Medic</tspan>
                </text>
            </g>
        </g>
    </g>
</svg>