<?xml version="1.0" encoding="UTF-8"?>
<svg width="169px" height="40px" viewBox="0 0 169 40" version="1.1" xmlns="http://www.w3.org/2000/svg" xmlns:xlink="http://www.w3.org/1999/xlink">
    <!-- Generator: Sketch 52.2 (67145) - http://www.bohemiancoding.com/sketch -->
    <title>logo</title>
    <desc>Created with Sketch.</desc>
    <g stroke="none" stroke-width="1" fill="none" fill-rule="evenodd">
        <g id="logo">
            <g id="pill-(1)">
                <circle id="Oval" fill="#336CFB" cx="20" cy="20" r="20"></circle>
                <path d="M38.8630469,26.6591406 L29.9659375,17.7620312 L27.215625,20.1672656 L16.8041406,9.86789062 L14.1083594,21.9603906 L11.9757031,23.3508594 L27.2639844,38.6390625 C32.6664063,36.5321094 36.9265625,32.144375 38.8630469,26.6591406 Z" id="Path" fill="#1047D1"></path>
                <g id="Group" transform="translate(11.093750, 8.828125)" fill="#FFFFFF">
                    <path d="M3.35070313,15.6163281 C1.50976563,15.6163281 0.01734375,14.1239062 0.01734375,12.2829687 L0.01734375,3.3940625 C0.01734375,1.553125 1.50976563,0.060703125 3.35070313,0.060703125 C5.19164063,0.060703125 6.6840625,1.553125 6.6840625,3.3940625 L6.6840625,12.2829687 C6.6840625,14.1239062 5.19164063,15.6163281 3.35070313,15.6163281 Z" id="Path"></path>
                    <path d="M6.6840625,3.3940625 C6.6840625,1.553125 5.19164063,0.060703125 3.35070313,0.060703125 C1.50976563,0.060703125 0.01734375,1.553125 0.01734375,3.3940625 L0.01734375,7.76 L6.68398438,7.76 L6.68398438,3.3940625 L6.6840625,3.3940625 Z" id="Path"></path>
                </g>
                <path d="M17.7778125,12.2221875 C17.7778125,10.38125 16.2853906,8.88882812 14.4444531,8.88882812 C14.4407031,8.88882812 14.4370313,8.8890625 14.4332813,8.8890625 L14.4332813,16.5880469 L17.7778125,16.5880469 L17.7778125,12.2221875 Z" id="Path" fill="#D0D1D3"></path>
                <path d="M11.1110938,16.588125 L11.1110938,21.1110938 C11.1110938,22.9520313 12.6035156,24.4444531 14.4444531,24.4444531 C16.2853906,24.4444531 17.7778125,22.9520313 17.7778125,21.1110938 L17.7778125,16.588125 L11.1110938,16.588125 Z" id="Path" fill="#FF314F"></path>
                <path d="M14.4332813,16.588125 L14.4332813,24.4442969 C14.4370313,24.4442969 14.4407031,24.4445313 14.4444531,24.4445313 C16.2853906,24.4445313 17.7778125,22.9521094 17.7778125,21.1111719 L17.7778125,16.5882813 L14.4332813,16.5882813 L14.4332813,16.588125 Z" id="Path" fill="#A30F44"></path>
                <g id="Group" transform="translate(18.046875, 16.484375)" fill="#FFFFFF">
                    <path d="M11.5800781,0.9225 C12.945625,2.15710937 13.051875,4.265 11.8171094,5.63054687 L5.85578125,12.2240625 C4.62117188,13.5896094 2.51328125,13.6957031 1.14773438,12.4610937 C-0.2178125,11.2264844 -0.3240625,9.11859375 0.910703125,7.75304687 L6.87203125,1.15953125 C8.1065625,-0.206015625 10.214375,-0.312109375 11.5800781,0.9225 Z" id="Path"></path>
                    <path d="M0.910546875,7.75304687 C-0.3240625,9.11859375 -0.21796875,11.2264844 1.14757812,12.4610937 C2.513125,13.6957031 4.62101563,13.5896094 5.85570312,12.2240625 L8.78367187,8.98554687 L3.83851562,4.51453125 L0.910546875,7.75304687 Z" id="Path"></path>
                </g>
                <path d="M19.1399219,28.8935938 C19.1582031,28.9108594 19.1757812,28.9285938 19.1944531,28.9454688 C20.56,30.1800781 22.6678906,30.0739844 23.9025,28.7084375 L26.8304688,25.4700781 L24.3332031,23.2121875 L19.1399219,28.8935938 Z" id="Path" fill="#D0D1D3"></path>
                <path d="M26.8305469,25.47 L29.8639844,22.115 C31.0985937,20.7494531 30.9925,18.6415625 29.6269531,17.4069531 C28.2614063,16.1723437 26.1535156,16.2784375 24.9188281,17.6439844 L21.8853906,20.9989844 L26.8305469,25.47 Z" id="Path" fill="#FF314F"></path>
                <path d="M29.6338281,17.4134375 L24.3333594,23.2121094 L26.830625,25.47 L29.8640625,22.115 C31.0964062,20.7517969 30.9925781,18.6489844 29.6338281,17.4134375 Z" id="Path" fill="#A30F44"></path>
            </g>
            <g id="symbol" transform="translate(46.000000, 1.000000)">
                <path d="M97.89,4.362 L97.89,13.92 L96.684,13.92 L96.684,12.282 C95.5919945,13.5900065 94.344007,14.244 92.94,14.244 C91.535993,14.244 90.3510048,13.743005 89.385,12.741 C88.4189952,11.738995 87.936,10.5450069 87.936,9.159 C87.936,7.77299307 88.4219951,6.58500495 89.394,5.595 C90.3660049,4.60499505 91.5299932,4.11 92.886,4.11 C94.4460078,4.11 95.7119951,4.77599334 96.684,6.108 L96.684,4.362 L97.89,4.362 Z M96.756,9.186 C96.756,8.09399454 96.3900037,7.17300375 95.658,6.423 C94.9259963,5.67299625 94.0290053,5.298 92.967,5.298 C91.9049947,5.298 91.0080037,5.68499613 90.276,6.459 C89.5439963,7.23300387 89.178,8.14799472 89.178,9.204 C89.178,10.2600053 89.5499963,11.1749961 90.294,11.949 C91.0380037,12.7230039 91.9289948,13.11 92.967,13.11 C94.0050052,13.11 94.8959963,12.7380037 95.64,11.994 C96.3840037,11.2499963 96.756,10.3140056 96.756,9.186 Z M100.68,4.362 L101.904,4.362 L101.904,6.108 C102.876005,4.77599334 104.141992,4.11 105.702,4.11 C107.046007,4.11 108.203995,4.60499505 109.176,5.595 C110.148005,6.58500495 110.634,7.77599304 110.634,9.168 C110.634,10.560007 110.154005,11.753995 109.194,12.75 C108.233995,13.746005 107.082007,14.244 105.738,14.244 C104.273993,14.244 102.996005,13.5900065 101.904,12.282 L101.904,17.412 L100.68,17.412 L100.68,4.362 Z M109.41,9.186 C109.41,8.11799466 109.041004,7.20300381 108.303,6.441 C107.564996,5.67899619 106.662005,5.298 105.594,5.298 C104.525995,5.298 103.629004,5.67299625 102.903,6.423 C102.176996,7.17300375 101.814,8.09999448 101.814,9.204 C101.814,10.3080055 102.185996,11.2349963 102.93,11.985 C103.674004,12.7350038 104.564995,13.11 105.603,13.11 C106.641005,13.11 107.534996,12.7290038 108.285,11.967 C109.035004,11.2049962 109.41,10.2780055 109.41,9.186 Z M112.956,4.362 L114.18,4.362 L114.18,6.108 C115.152005,4.77599334 116.417992,4.11 117.978,4.11 C119.322007,4.11 120.479995,4.60499505 121.452,5.595 C122.424005,6.58500495 122.91,7.77599304 122.91,9.168 C122.91,10.560007 122.430005,11.753995 121.47,12.75 C120.509995,13.746005 119.358007,14.244 118.014,14.244 C116.549993,14.244 115.272005,13.5900065 114.18,12.282 L114.18,17.412 L112.956,17.412 L112.956,4.362 Z M121.686,9.186 C121.686,8.11799466 121.317004,7.20300381 120.579,6.441 C119.840996,5.67899619 118.938005,5.298 117.87,5.298 C116.801995,5.298 115.905004,5.67299625 115.179,6.423 C114.452996,7.17300375 114.09,8.09999448 114.09,9.204 C114.09,10.3080055 114.461996,11.2349963 115.206,11.985 C115.950004,12.7350038 116.840995,13.11 117.879,13.11 C118.917005,13.11 119.810996,12.7290038 120.561,11.967 C121.311004,11.2049962 121.686,10.2780055 121.686,9.186 Z" id="app" fill="#336CFB"></path>
                <path d="M0.54,33.32 L3.396,13.216 L3.704,13.216 L11.88,29.708 L20,13.216 L20.308,13.216 L23.192,33.32 L21.204,33.32 L19.244,18.928 L12.132,33.32 L11.628,33.32 L4.432,18.816 L2.472,33.32 L0.54,33.32 Z M39.376,28.504 L41,29.344 C39.3946586,32.3306816 37.0240157,33.824 33.888,33.824 C31.6479888,33.824 29.8000073,33.0540077 28.344,31.514 C26.8879927,29.9739923 26.16,28.1213442 26.16,25.956 C26.16,23.7906558 26.8926593,21.9333411 28.358,20.384 C29.8233407,18.8346589 31.6339892,18.06 33.79,18.06 C35.9460108,18.06 37.7566593,18.7786595 39.222,20.216 C40.6873407,21.6533405 41.4479997,23.6133209 41.504,26.096 L28.12,26.096 C28.1760003,27.888009 28.7406613,29.3299945 29.814,30.422 C30.8873387,31.5140055 32.1893257,32.06 33.72,32.06 C36.2400126,32.06 38.1253271,30.8746785 39.376,28.504 Z M39.376,24.444 C39.1146654,23.0253262 38.4613386,21.9146707 37.416,21.112 C36.3706614,20.3093293 35.1666735,19.908 33.804,19.908 C31.003986,19.908 29.174671,21.4199849 28.316,24.444 L39.376,24.444 Z M59.9,12.712 L59.9,33.32 L58.024,33.32 L58.024,30.772 C56.3253248,32.8066768 54.3793443,33.824 52.186,33.824 C49.9926557,33.824 48.1493408,33.0493411 46.656,31.5 C45.1626592,29.9506589 44.416,28.0933442 44.416,25.928 C44.416,23.7626558 45.1719924,21.9100077 46.684,20.37 C48.1960076,18.8299923 50.0066561,18.06 52.116,18.06 C54.5426788,18.06 56.5119924,19.0959896 58.024,21.168 L58.024,12.712 L59.9,12.712 Z M58.136,25.984 C58.136,24.2853248 57.5760056,22.8480059 56.456,21.672 C55.3359944,20.4959941 53.9360084,19.908 52.256,19.908 C50.5759916,19.908 49.171339,20.509994 48.042,21.714 C46.912661,22.918006 46.348,24.3366585 46.348,25.97 C46.348,27.6033415 46.9266609,29.0266606 48.084,30.24 C49.2413391,31.4533394 50.6086588,32.06 52.186,32.06 C53.7633412,32.06 55.1493274,31.4860057 56.344,30.338 C57.5386726,29.1899943 58.136,27.7386754 58.136,25.984 Z M63.344,14.308 C63.344,13.8786645 63.4979985,13.5053349 63.806,13.188 C64.1140015,12.8706651 64.4873311,12.712 64.926,12.712 C65.3646689,12.712 65.7379985,12.8659985 66.046,13.174 C66.3540015,13.4820015 66.508,13.8553311 66.508,14.294 C66.508,14.7326689 66.3540015,15.1059985 66.046,15.414 C65.7379985,15.7220015 65.3646689,15.876 64.926,15.876 C64.4873311,15.876 64.1140015,15.7173349 63.806,15.4 C63.4979985,15.0826651 63.344,14.7186687 63.344,14.308 Z M63.96,18.452 L65.892,18.452 L65.892,33.32 L63.96,33.32 L63.96,18.452 Z M84.372,21.532 L82.86,22.484 C81.5533268,20.7479913 79.7613447,19.88 77.484,19.88 C75.691991,19.88 74.1893394,20.4539943 72.976,21.602 C71.7626606,22.7500057 71.156,24.1733248 71.156,25.872 C71.156,27.5706752 71.7533274,29.0266606 72.948,30.24 C74.1426726,31.4533394 75.6546575,32.06 77.484,32.06 C79.6680109,32.06 81.459993,31.1920087 82.86,29.456 L84.372,30.464 C83.6253296,31.5466721 82.6220063,32.3773304 81.362,32.956 C80.1019937,33.5346696 78.7440073,33.824 77.288,33.824 C74.9919885,33.824 73.0740077,33.0680076 71.534,31.556 C69.9939923,30.0439924 69.224,28.1960109 69.224,26.012 C69.224,23.8279891 70.0033255,21.9566745 71.562,20.398 C73.1206745,18.8393255 75.1226544,18.06 77.568,18.06 C79.0053405,18.06 80.3353272,18.3679969 81.558,18.984 C82.7806728,19.6000031 83.7186634,20.4493279 84.372,21.532 Z" id="Medic" fill="#1F2022"></path>
            </g>
        </g>
    </g>
</svg>
